<svg xmlns:inkscape="http://www.inkscape.org/namespaces/inkscape" xmlns:sodipodi="http://sodipodi.sourceforge.net/DTD/sodipodi-0.dtd" xmlns="http://www.w3.org/2000/svg" xmlns:svg="http://www.w3.org/2000/svg" version="1.1" id="svg2" sodipodi:docname="vecteezy_animal-paw-icon-eps-10_10263399.eps" viewBox="721.26 666.67 1224.15 1333.33">
  <defs id="defs6"/>
  <sodipodi:namedview id="namedview4" pagecolor="#ffffff" bordercolor="#000000" borderopacity="0.25" inkscape:showpageshadow="2" inkscape:pageopacity="0.0" inkscape:pagecheckerboard="0" inkscape:deskcolor="#d1d1d1"/>
  <g id="g8" inkscape:groupmode="layer" inkscape:label="ink_ext_XXXXXX" transform="matrix(1.3333333,0,0,-1.3333333,0,2666.6667)">
    <g id="g10" transform="scale(0.1)">
      <path d="m 10429.3,10666.7 c 446.7,-227.3 717.5,-604.3 893.3,-1060.8 103.3,-268.4 175.3,-546.2 218.5,-829.3 65.2,-427.8 188.2,-832.4 401.2,-1211.6 120.3,-214.3 205.1,-446 239.1,-692.6 52.4,-380 -64.3,-718 -263,-1033.5 -144.3,-229.2 -307.1,-443.5 -541,-591.2 -427.2,-269.6 -881.9,-319.4 -1354.5,-148 -453.14,164.3 -795.93,476.9 -1088.21,850.6 -81.49,104.1 -160.82,210 -242.71,313.8 -241.42,306.2 -557.72,471.4 -946.03,500.8 -270.74,20.6 -543.43,21.3 -810.55,78.9 -359.27,77.4 -698.7,200.7 -983.82,441.6 -510.97,431.8 -673.83,1092.3 -432.55,1727.2 84.25,221.8 183.97,434.1 333.3,620.3 203.83,254 471.18,405.2 783.63,484 215.26,54.3 434.55,86.1 654.71,107.4 240.8,23.2 464.71,97 684.17,193.2 350.38,153.7 700.22,309.4 1075.47,395.7 399.8,91.9 796,99.4 1185.59,-50.3 13.4,-5.1 30.5,-10.7 40.4,-15.1 39.5,-17.7 102.1,-54 153,-81.1" style="fill:#231f20;fill-opacity:1;fill-rule:evenodd;stroke:none" id="path12"/>
      <path d="m 11899.9,11739.8 c -129.7,-238.3 -282.1,-458.4 -502.7,-623.6 -139.8,-104.6 -293.8,-174.9 -470.3,-181.9 -306.6,-12.4 -562.6,188.5 -638.5,498.3 -58.2,237.3 -23.3,468.5 54.7,694.7 102.1,296.1 245.4,570.3 463.8,798.1 213.5,222.7 466.7,331.9 775.2,222.5 459.9,-163.2 634.2,-535.5 483.3,-1016.7 -42.6,-135.9 -100,-265.2 -165.5,-391.4" style="fill:#231f20;fill-opacity:1;fill-rule:evenodd;stroke:none" id="path14"/>
      <path d="m 13800.8,7857.3 c -115,-220.2 -239.3,-396.3 -417.1,-527.7 -206,-152.2 -432.2,-222.5 -685,-138 -286.1,95.5 -430,312.3 -477.3,597.8 -57.4,347.2 58.4,654.6 237.4,943.8 115.7,187 247.9,360.4 428.9,490.8 350.8,252.8 823.6,175.7 1047.4,-172.9 102.8,-160.1 116.2,-338.2 92.7,-521.4 -32,-249.4 -129.7,-476.4 -227,-672.4" style="fill:#231f20;fill-opacity:1;fill-rule:evenodd;stroke:none" id="path16"/>
      <path d="m 7630.44,11144.1 c -138.8,-266.9 -326.02,-486.9 -607.79,-611.2 -501.93,-221.5 -995.6,90.1 -1011.95,638 -5.55,186.2 36.45,363.6 113.43,531.5 139.51,304.2 312.59,586.3 579.05,797.8 223.39,177.4 470.07,228.4 734.71,99.9 261.72,-127.2 407.89,-336.9 420.69,-631.6 11.63,-267.5 -78.21,-510.4 -187.7,-747.8 -12.05,-26.2 -26.88,-51.1 -40.44,-76.6" style="fill:#231f20;fill-opacity:1;fill-rule:evenodd;stroke:none" id="path18"/>
      <path d="m 11761.1,10837.1 c 110.1,183.5 247.8,400.7 456.8,560.9 227.8,174.7 469.3,194.8 722.9,61.4 252.9,-132.9 377.5,-341.5 361.2,-628.9 -16.4,-288 -130.2,-545 -258.2,-797.1 -102.2,-201.4 -227.7,-385.1 -408.8,-525 -362.7,-280.1 -864.3,-179.7 -1060.6,215.2 -111,223.3 -86.1,453.5 -14.6,682.2 43.3,138.4 106.5,268.1 201.3,431.3" style="fill:#231f20;fill-opacity:1;fill-rule:evenodd;stroke:none" id="path20"/>
      <path d="m 9824.65,11860.3 c -113.89,-231.3 -224.16,-408.4 -380.53,-552.4 -265.91,-244.9 -568.37,-292.1 -854.29,-134.8 -277.87,152.9 -401.47,439.5 -339.85,790.1 35.89,204.2 118.41,390.6 221.7,568.5 118.66,204.4 246.77,401.9 426.95,559.4 246.56,215.4 511.26,248.9 786.06,100 271.7,-147.2 387.31,-384.6 345.31,-706.6 -31.06,-237.3 -124.76,-453.2 -205.35,-624.2" style="fill:#231f20;fill-opacity:1;fill-rule:evenodd;stroke:none" id="path22"/>
      <path d="m 14081.6,10558.9 c 119.2,210.1 209.2,446.3 308.1,678.6 17.8,41.7 38.8,83.5 66,119.5 34.3,45.2 76,38 100.1,-13.4 20.5,-44.1 30.1,-92.1 31.5,-140.1 17.3,-599.2 -31.8,-1190.6 -214.3,-1765.6 -15.3,-48.2 -39.2,-93.3 -70.6,-133.4 -50.4,-64.3 -112.9,-63.8 -158.6,4.7 -22.2,33.5 -35.4,73.3 -51,110.9 -9.1,22.2 -14.7,45.8 -22.3,68.6 -58.4,175.9 -85.2,193.7 -271.5,183 -38.2,-2.2 -77.2,-5.1 -114.9,-0.6 -84.6,10.1 -120.3,77.6 -77,151.8 32.5,55.7 75.1,105.6 114.2,157.2 135.6,178.7 252.5,369 360.3,578.8" style="fill:#231f20;fill-opacity:1;fill-rule:evenodd;stroke:none" id="path24"/>
      <path d="m 8695.11,14275 c -142.17,-211.7 -288.82,-434.3 -413.34,-671.2 -117.83,-224.2 -219.27,-454.4 -295.73,-695.8 -3.62,-11.4 -6.51,-23.1 -10.99,-34.2 -20.05,-49.9 -40.39,-101.2 -103.85,-107.3 -60.43,-5.7 -88.97,39.7 -117.05,81.7 -28.02,41.9 -53.17,85.8 -79.86,128.6 -40.7,65.3 -99.02,88.1 -173.17,69.8 -69.99,-17.3 -139.22,-37.9 -209.65,-53.1 -51.67,-11.1 -107.38,-21.5 -146.93,28.1 -41.29,51.7 -10.4,101.5 14.3,147.2 89.19,165 217.59,298.7 352.31,425.8 302.65,285.8 617.81,556.4 970.1,780.5 54.88,34.9 112.51,65.1 175.25,83.4 29.4,8.6 62.66,21.4 87.02,-8.3 23.1,-28 11.61,-59.4 -2.41,-88.2 -12.61,-25.9 -26.86,-51 -46,-87" style="fill:#231f20;fill-opacity:1;fill-rule:evenodd;stroke:none" id="path26"/>
      <path d="m 11574.9,13683.6 c 297.5,438.1 638.9,853.3 1011.8,1242.8 37,38.5 77.1,95.2 139.1,65.1 67.8,-33 41.3,-101.8 29.5,-155.1 -118,-530.9 -265.5,-1052.9 -477.3,-1555 -13,-30.8 -29.2,-61 -48.4,-88.3 -46.6,-66.4 -103.6,-66.7 -148,2.8 -36.1,56.5 -64.4,118 -95.1,177.8 -38.7,75.2 -99,107.8 -183.2,97 -59.5,-7.6 -119.1,-17 -179,-20.7 -107,-6.7 -142.6,45.9 -98,141.7 13.2,28.2 29.1,55.2 48.6,91.9" style="fill:#231f20;fill-opacity:1;fill-rule:evenodd;stroke:none" id="path28"/>
      <path d="m 13572.1,11396.9 c -17.9,-23.5 -33.2,-48.5 -53.3,-68.7 -44.2,-44.4 -88.4,-42.2 -129.9,5.6 -46.8,53.9 -71,120.6 -91.5,186.6 -42.4,136.5 -127.9,201.3 -273.5,209.3 -183.7,10.1 -203.3,54.9 -96.8,204.7 268.1,377.4 453.4,797.8 641.2,1217.2 26.5,59.2 56.9,116.7 87.5,173.9 10.9,20.4 23.9,46.3 52.3,42.6 27.4,-3.6 34.9,-31.4 43.6,-53 31,-77 40.1,-159 42.3,-240.5 14.1,-517.1 -39.4,-1027.1 -168.6,-1528.4 -13.2,-50.9 -35.3,-99.5 -53.3,-149.3" style="fill:#231f20;fill-opacity:1;fill-rule:evenodd;stroke:none" id="path30"/>
      <path d="m 10733.2,14645.1 c -178.4,-280.2 -360.5,-558.3 -501.8,-859.6 -58.1,-123.9 -107.9,-251.8 -160.2,-378.5 -46.9,-113.6 -110.16,-130.7 -179.43,-29.8 -107.04,155.9 -239.05,192.8 -411.06,132.8 -40.02,-14 -85.1,-18.1 -127.92,-18.4 -89.51,-0.7 -120.79,45.8 -95,130.9 20.09,66.3 59.6,122 103.67,171.9 357.22,404.3 763.94,750.5 1225.44,1031 59.7,36.3 123.4,66.3 192.9,78.4 59.9,10.5 79.1,-12.4 54,-67.3 -29.9,-65.5 -66.8,-127.8 -100.6,-191.4" style="fill:#231f20;fill-opacity:1;fill-rule:evenodd;stroke:none" id="path32"/>
    </g>
  </g>
</svg>