<svg xmlns:inkscape="http://www.inkscape.org/namespaces/inkscape" xmlns:sodipodi="http://sodipodi.sourceforge.net/DTD/sodipodi-0.dtd" xmlns="http://www.w3.org/2000/svg" xmlns:svg="http://www.w3.org/2000/svg" version="1.1" id="svg2" sodipodi:docname="bear_claw_045.eps" viewBox="100.46 66.67 465.74 533.33">
  <defs id="defs6"/>
  <sodipodi:namedview id="namedview4" pagecolor="#ffffff" bordercolor="#000000" borderopacity="0.25" inkscape:showpageshadow="2" inkscape:pageopacity="0.0" inkscape:pagecheckerboard="0" inkscape:deskcolor="#d1d1d1"/>
  <g id="g8" inkscape:groupmode="layer" inkscape:label="ink_ext_XXXXXX" transform="matrix(1.3333333,0,0,-1.3333333,0,666.66667)">
    <g id="g10" transform="scale(0.1)">
      <path d="m 2705.34,2434.31 c -60.82,24.92 -130.04,36.15 -205.34,34.03 -75.3,2.12 -144.52,-9.11 -205.34,-34.03 -232.33,-67.04 -493.55,-230.58 -728.38,-474.64 C 1097.43,1472.38 911.32,848.719 1150.61,566.688 c 159.64,-188.161 697.18,61.773 1043.8,256.332 192.08,107.812 419.11,107.812 611.18,0 346.62,-194.559 884.16,-444.493 1043.8,-256.332 239.29,282.031 53.19,905.692 -415.67,1392.982 -234.83,244.06 -496.04,407.6 -728.38,474.64 z M 2733.79,3683.34 2500,4500 2266.21,3683.33 2500,3839.65 Z M 2500,2689.36 c 185.62,0 336.09,198.85 336.09,444.14 0,245.29 -150.47,444.14 -336.09,444.14 -185.62,0 -336.09,-198.85 -336.09,-444.14 0,-245.29 150.47,-444.14 336.09,-444.14 z m -510.06,714.96 c -150.45,259.61 -177.18,557.06 -93.2,816.67 -239.83,-259.6 -368.97,-557.06 -374.38,-816.67 64.05,49.69 132.63,100.77 205.66,152.7 82.84,-51.93 170.11,-103.01 261.92,-152.7 z m -233.79,-993.97 c 185.62,0 336.1,198.85 336.1,444.14 0,245.29 -150.48,444.14 -336.1,444.14 -185.61,0 -336.09,-198.85 -336.09,-444.14 0,-245.29 150.48,-444.14 336.09,-444.14 z m 1515.84,1146.67 c 73.02,-51.93 141.6,-103.01 205.65,-152.7 -5.41,259.61 -134.54,557.07 -374.38,816.67 83.98,-259.61 57.25,-557.06 -93.2,-816.67 91.81,49.69 179.09,100.77 261.93,152.7 z m -28.14,-1146.67 c 185.62,0 336.09,198.85 336.09,444.14 0,245.29 -150.47,444.14 -336.09,444.14 -185.62,0 -336.09,-198.85 -336.09,-444.14 0,-245.29 150.47,-444.14 336.09,-444.14 z m -1920.51,383.36 c -150.45,259.6 -177.18,557.06 -93.2,816.67 C 990.305,3350.77 861.164,3053.3 855.762,2793.7 c 64.047,49.69 132.629,100.77 205.648,152.7 82.84,-51.93 170.12,-103.01 261.93,-152.69 z m 102.3,-549.84 c 0,245.29 -150.47,444.14 -336.09,444.14 -185.616,0 -336.089,-198.85 -336.089,-444.14 0,-245.29 150.473,-444.14 336.089,-444.14 185.62,0 336.09,198.85 336.09,444.14 z m 2512.95,702.53 c 73.02,-51.93 141.6,-103.01 205.65,-152.7 -5.4,259.6 -134.54,557.07 -374.38,816.68 83.98,-259.61 57.25,-557.07 -93.2,-816.67 91.81,49.68 179.09,100.76 261.93,152.69 z m -28.14,-258.39 c -185.62,0 -336.09,-198.85 -336.09,-444.14 0,-245.29 150.47,-444.14 336.09,-444.14 185.62,0 336.09,198.85 336.09,444.14 0,245.29 -150.47,444.14 -336.09,444.14" style="fill:#231f20;fill-opacity:1;fill-rule:nonzero;stroke:none" id="path12"/>
    </g>
  </g>
</svg>