<?xml version="1.0" standalone="no"?>
<!DOCTYPE svg PUBLIC "-//W3C//DTD SVG 20010904//EN"
 "http://www.w3.org/TR/2001/REC-SVG-20010904/DTD/svg10.dtd">
<svg version="1.0" xmlns="http://www.w3.org/2000/svg"
 width="612.000000pt" height="612.000000pt" viewBox="0 0 612.000000 612.000000"
 preserveAspectRatio="xMidYMid meet">
<metadata>
Created by potrace 1.14, written by Peter Selinger 2001-2017
</metadata>
<g transform="translate(0.000000,612.000000) scale(0.100000,-0.100000)"
fill="#000000" stroke="none">
<path d="M2858 6115 c-1 -1 -37 -6 -78 -9 -71 -7 -89 -9 -170 -20 -106 -15
-231 -42 -358 -77 -642 -176 -1215 -561 -1615 -1083 -34 -45 -65 -82 -69 -84
-5 -2 -8 -7 -8 -12 0 -4 -31 -54 -69 -111 -154 -232 -297 -547 -376 -831 -23
-81 -32 -118 -50 -208 -3 -14 -10 -47 -16 -75 -15 -73 -23 -134 -36 -275 -15
-153 -8 -533 13 -665 2 -16 6 -46 9 -65 2 -19 7 -46 10 -60 3 -14 10 -52 16
-85 39 -218 128 -480 245 -720 169 -347 324 -565 594 -836 119 -119 253 -237
330 -289 19 -13 37 -27 40 -31 6 -7 220 -148 260 -170 94 -52 371 -183 450
-212 84 -31 315 -103 358 -112 10 -2 51 -10 92 -18 105 -22 129 -26 180 -32
25 -3 56 -8 70 -11 143 -26 610 -26 760 1 14 2 45 6 70 9 47 5 173 29 265 50
49 12 208 57 216 62 5 3 17 7 26 9 58 11 272 101 418 175 229 116 447 260 620
411 67 57 280 272 333 333 136 160 277 368 369 545 25 47 48 91 52 96 4 6 27
55 50 109 92 212 172 469 206 663 8 48 17 99 20 113 35 198 41 668 11 840 -3
14 -7 47 -11 74 -43 340 -189 755 -382 1086 -50 85 -169 267 -183 280 -3 3
-30 36 -60 75 -81 104 -94 119 -235 260 -142 143 -166 165 -270 245 -38 30
-71 58 -73 62 -2 5 -8 8 -13 8 -6 0 -27 13 -47 29 -122 97 -440 269 -642 348
-139 54 -326 113 -400 126 -14 3 -43 10 -65 16 -22 6 -58 13 -80 16 -22 3 -53
9 -70 12 -16 4 -34 7 -40 8 -74 8 -154 18 -170 22 -23 5 -491 13 -497 8z"/>
</g>
</svg>
